<svg xmlns="http://www.w3.org/2000/svg"
     width="256" height="256"
     viewBox="0 0 256 256">
<defs>
  <linearGradient id="bgGradient" x1="0%" y1="0%" x2="100%" y2="100%">
    <stop offset="0%" stop-color="#7B68EE" stop-opacity="1" />
    <stop offset="100%" stop-color="#FF1493" stop-opacity="1" />
  </linearGradient>
</defs>
  <rect x="0" y="0"
        width="256" height="256"
        rx="48" ry="48"
        fill="url(#bgGradient)" />
  <g transform="
      translate(128.0,128.0)
      scale(7.466666666666666)
      translate(-12.0,-12.0)
  ">
<path xmlns="http://www.w3.org/2000/svg" fill="white" d="M11 17.25A4.25 4.25 0 1 1 6.75 13H11zM17.25 13A4.25 4.25 0 1 1 13 17.25V13zm-10.5 2A2.25 2.25 0 1 0 9 17.25V15zM15 17.25A2.25 2.25 0 1 0 17.25 15H15zM6.75 2.5A4.25 4.25 0 0 1 11 6.75V11H6.75a4.25 4.25 0 1 1 0-8.5m10 .34a.538.538 0 0 1 1 0l.27.648a4.64 4.64 0 0 0 2.391 2.47l.762.34a.563.563 0 0 1 0 1.022l-.808.359a4.64 4.64 0 0 0-2.357 2.39l-.262.6c-.192.44-.8.44-.992 0l-.262-.6a4.64 4.64 0 0 0-2.357-2.39l-.808-.359a.563.563 0 0 1 0-1.022l.762-.34a4.64 4.64 0 0 0 2.391-2.47zm-10 1.66a2.25 2.25 0 0 0 0 4.5H9V6.75A2.25 2.25 0 0 0 6.75 4.5" />
  </g>
</svg>